# xmcd
#
# Track frame offsets: 
#        150
#        15801
#        29006
#        45647
#        61990
#        75111
#        92070
#        109682
#        127310
#        142004
#        155588
#        172856
#
# Disc length: 2575 seconds
#
# Revision: 0
# Processed by: cddbd v1.5.2PL0 Copyright (c) Steve Scherf et al.
# Submitted via: ExactAudioCopy v0.99pb4
#
DISCID=910a0d0c
DTITLE=Hey Romeo - Hey Romeo
DYEAR=1900
DGENRE=Country
TTITLE0=Wrap These Around You
TTITLE1=Sorry That You're Leavin
TTITLE2=Goodbye
TTITLE3=I Got Nothin
TTITLE4=Second Hand News
TTITLE5=Weathered Names
TTITLE6=Destinations
TTITLE7=Good for Me
TTITLE8=Silent Screams
TTITLE9=Easy
TTITLE10=All Because of You
TTITLE11=Just Like Today
EXTD=
EXTT0=
EXTT1=
EXTT2=
EXTT3=
EXTT4=
EXTT5=
EXTT6=
EXTT7=
EXTT8=
EXTT9=
EXTT10=
EXTT11=
PLAYORDER=
